<?xml version="1.0" standalone="no"?>
<!DOCTYPE svg PUBLIC "-//W3C//DTD SVG 20010904//EN"
 "http://www.w3.org/TR/2001/REC-SVG-20010904/DTD/svg10.dtd">
<svg version="1.0" xmlns="http://www.w3.org/2000/svg"
 width="32.000000pt" height="32.000000pt" viewBox="0 0 32.000000 32.000000"
 preserveAspectRatio="xMidYMid meet">

<g transform="translate(0.000000,32.000000) scale(0.100000,-0.100000)"
fill="#000000" stroke="none">
<path d="M93 215 c-3 -9 3 -25 12 -35 17 -19 17 -21 2 -38 -37 -41 -6 -72 35
-35 17 15 19 15 36 0 10 -10 26 -17 35 -17 21 0 22 33 2 50 -14 12 -14 15 1
31 12 14 13 22 4 38 -13 26 -60 29 -60 4 0 -15 -1 -15 -18 0 -23 21 -41 22
-49 2z"/>
</g>
</svg>
